<svg version="1.1" id="Layer_1" xmlns="http://www.w3.org/2000/svg" xmlns:xlink="http://www.w3.org/1999/xlink" x="0px" y="0px"
	 width="100%" viewBox="0 0 209 209" enable-background="new 0 0 209 209" xml:space="preserve">
<path fill="#091223" opacity="1.000000" stroke="none" 
	d="
M142.000000,210.000000 
	C94.666672,210.000000 47.833340,210.000000 1.000006,210.000000 
	C1.000004,140.333344 1.000004,70.666679 1.000002,1.000016 
	C70.666656,1.000010 140.333313,1.000010 209.999969,1.000005 
	C209.999985,70.666649 209.999985,140.333298 210.000000,209.999969 
	C187.500000,210.000000 165.000000,210.000000 142.000000,210.000000 
M160.751221,162.102051 
	C161.023209,161.818680 161.295212,161.535309 162.216110,161.092468 
	C166.926025,158.125977 171.635956,155.159485 177.065445,152.043701 
	C178.420547,150.250229 180.910461,148.480927 180.949249,146.659424 
	C181.231628,133.402420 181.020645,120.134911 181.162445,105.968056 
	C180.778961,96.114388 183.686981,85.480072 174.972748,77.519836 
	C168.144287,71.282196 161.116806,65.260818 154.103302,59.229935 
	C153.431488,58.652241 152.231522,58.478298 151.275238,58.474277 
	C141.121735,58.431587 130.967941,58.461285 120.043243,58.208870 
	C117.707855,58.435440 115.372459,58.662010 112.904129,58.838997 
	C112.904129,58.838997 112.849136,58.969791 112.162918,58.935673 
	C107.084969,64.036026 102.007027,69.136383 96.198395,74.256035 
	C94.858788,73.394325 93.350479,72.712265 92.208565,71.640022 
	C87.076843,66.821381 82.049210,61.891911 76.467873,56.504166 
	C72.340446,61.243298 68.591599,65.547745 64.255028,70.156364 
	C62.735817,72.074974 61.216606,73.993576 59.159847,76.213959 
	C58.128330,77.484848 57.096809,78.755730 55.493698,80.352615 
	C53.973942,82.225388 52.454185,84.098160 50.360661,86.275047 
	C49.154427,87.817406 47.948193,89.359764 46.204346,91.274757 
	C43.597042,95.160057 40.989735,99.045357 38.168644,103.855125 
	C38.116405,114.547325 38.015297,125.239693 38.054279,135.931564 
	C38.061829,138.002930 38.616249,140.072327 39.263470,142.665756 
	C40.510876,143.772980 41.758282,144.880219 43.310680,146.549316 
	C44.566280,147.691925 45.821880,148.834534 47.351280,150.519272 
	C48.165646,151.106415 48.980011,151.693542 49.795387,152.203796 
	C49.795387,152.203796 49.721169,152.223846 49.968449,152.845551 
	C53.964867,156.569687 57.961281,160.293823 62.243031,164.617111 
	C64.466095,166.766098 66.689156,168.915070 69.299095,171.606125 
	C71.103996,174.194763 72.908905,176.783417 75.168060,180.023560 
	C77.626549,176.974487 78.513527,175.874451 79.943161,174.350464 
	C80.830994,173.312500 81.718819,172.274551 83.194115,171.019272 
	C84.910011,169.136276 86.625916,167.253281 88.901352,165.072357 
	C89.876801,163.951752 90.852249,162.831146 92.424301,161.471619 
	C93.929703,159.928711 95.435104,158.385803 97.634605,157.017426 
	C101.378738,159.186050 105.122871,161.354691 109.308151,163.973892 
	C112.406181,165.772675 115.504211,167.571472 119.016129,169.765518 
	C119.195534,169.830475 119.374931,169.895416 119.984215,170.383240 
	C121.664818,171.248474 123.345421,172.113708 125.004158,172.998260 
	C125.004158,172.998260 125.016373,172.973724 125.364792,173.527740 
	C126.896027,174.337860 128.427261,175.147980 130.205429,176.214828 
	C130.205429,176.214828 130.539307,176.338943 131.010147,176.895355 
	C135.129745,179.781799 137.528412,176.380325 140.108597,174.097061 
	C140.108597,174.097061 140.274933,174.371094 140.964828,174.235687 
	C143.444794,172.647507 145.924774,171.059326 148.946411,169.315414 
	C149.359375,168.956345 149.772324,168.597275 149.994232,168.015732 
	C149.994232,168.015732 150.180389,168.244278 150.819977,168.144501 
	C151.687180,167.534546 152.554367,166.924591 153.921646,166.167465 
	C154.345459,165.876709 154.769257,165.585953 155.778534,165.233261 
	C156.388672,164.769821 156.998810,164.306381 157.796341,163.827271 
	C157.796341,163.827271 157.892349,163.665558 158.455124,163.582504 
	C159.028793,163.124725 159.602463,162.666962 160.117035,162.016708 
	C160.117035,162.016708 160.159088,162.209091 160.751221,162.102051 
z"/>
<path fill="#5C72AF" opacity="1.000000" stroke="none" 
	d="
M108.866997,163.523331 
	C105.122871,161.354691 101.378738,159.186050 97.104889,156.662537 
	C87.858604,152.745117 83.966064,146.482956 85.828384,136.611465 
	C85.826035,135.367706 85.779457,134.537460 85.768784,133.412598 
	C85.900459,132.734726 85.996231,132.351501 86.424477,131.893021 
	C87.708679,130.327713 89.327461,128.906525 89.489693,127.334969 
	C90.021004,122.188110 90.022530,116.986557 90.562950,111.865646 
	C96.125290,116.657219 101.220566,121.548920 106.652878,126.032257 
	C108.490044,127.548477 111.180199,128.031158 113.645401,129.293732 
	C114.562416,131.301239 114.947952,133.337234 116.138100,134.635742 
	C119.235535,138.015198 122.686073,141.071045 126.012054,144.443695 
	C126.028366,144.631393 126.026291,145.009323 125.631592,144.981537 
	C121.455940,143.651840 118.352806,144.035522 115.668228,147.568970 
	C114.483368,149.128494 112.106956,149.863907 110.171555,150.756821 
	C104.336456,153.448837 103.988029,156.243607 108.981339,161.423950 
	C108.933907,162.403748 108.900452,162.963547 108.866997,163.523331 
z"/>
<path fill="#39DDF8" opacity="1.000000" stroke="none" 
	d="
M120.814224,58.471054 
	C130.967941,58.461285 141.121735,58.431587 151.275238,58.474277 
	C152.231522,58.478298 153.431488,58.652241 154.103302,59.229935 
	C161.116806,65.260818 168.144287,71.282196 174.972748,77.519836 
	C183.686981,85.480072 180.778961,96.114388 180.814041,106.405487 
	C180.298981,106.837524 180.132324,106.832123 179.792191,106.594124 
	C178.804306,105.846069 177.989883,105.330620 176.978760,104.544701 
	C169.623703,98.812866 162.465363,93.351501 155.015808,87.883865 
	C154.541748,87.942909 154.358887,88.008232 154.087784,87.825043 
	C153.932556,87.414001 153.865570,87.251465 153.495819,86.833313 
	C141.437378,86.380173 129.681992,86.151970 117.925514,86.029877 
	C116.672005,86.016853 115.412048,86.623848 114.022324,87.064728 
	C113.889565,87.186249 113.544273,87.287926 113.471619,87.162560 
	C113.398964,87.037193 113.148399,86.888107 113.121017,86.483353 
	C113.074074,84.728905 113.054527,83.379211 113.456284,82.028618 
	C126.854492,83.136086 139.831390,84.244446 153.213364,85.387405 
	C153.213364,78.474854 153.166824,72.581261 153.227997,66.688782 
	C153.277451,61.922989 150.454193,60.789059 146.396210,60.994164 
	C139.608459,61.337250 132.815735,61.588158 126.030609,61.974262 
	C121.994911,62.203915 117.969704,62.617874 113.871277,62.611862 
	C113.484894,61.173103 113.167015,60.071449 112.849136,58.969791 
	C112.849136,58.969791 112.904129,58.838997 113.375351,58.939034 
	C116.169121,58.849735 118.491669,58.660393 120.814224,58.471054 
z"/>
<path fill="#684E76" opacity="1.000000" stroke="none" 
	d="
M38.918411,142.142624 
	C38.616249,140.072327 38.061829,138.002930 38.054279,135.931564 
	C38.015297,125.239693 38.116405,114.547325 38.585423,103.478958 
	C40.484615,104.382423 42.014206,105.611832 43.440403,106.951332 
	C47.362488,110.635002 51.241230,114.364830 55.137764,118.409424 
	C56.466244,120.479027 57.794079,122.215599 58.793667,124.096405 
	C57.161404,124.932564 55.607662,125.369102 54.595200,126.359169 
	C49.294025,131.543045 44.130066,136.867218 38.918411,142.142624 
z"/>
<path fill="#7C538F" opacity="1.000000" stroke="none" 
	d="
M47.077477,149.977142 
	C45.821880,148.834534 44.566280,147.691925 43.171623,145.898834 
	C43.619846,144.152420 43.987129,142.833221 44.833008,141.999725 
	C48.247307,138.635300 52.294460,135.792740 55.171944,132.039825 
	C57.740204,128.690262 60.320602,127.825150 64.306831,129.128555 
	C65.621559,130.511032 66.659195,131.754410 67.444107,133.125305 
	C66.466415,136.868256 66.029251,140.573761 64.933975,144.073288 
	C63.879635,147.442017 62.681042,151.006210 60.587646,153.754700 
	C57.155220,158.261230 54.322357,153.152313 51.188267,152.405304 
	C50.711880,152.291763 50.210815,152.281754 49.721169,152.223846 
	C49.721169,152.223846 49.795387,152.203796 49.747120,151.907135 
	C48.825062,151.066025 47.951267,150.521576 47.077477,149.977142 
z"/>
<path fill="#777D74" opacity="1.000000" stroke="none" 
	d="
M55.137123,118.076401 
	C51.241230,114.364830 47.362488,110.635002 43.440403,106.951332 
	C42.014206,105.611832 40.484615,104.382423 38.692314,103.016724 
	C40.989735,99.045357 43.597042,95.160057 46.838173,91.169182 
	C48.950127,92.011620 50.571533,92.795387 51.880505,93.937302 
	C56.490810,97.959167 60.993881,102.103973 65.358093,106.516075 
	C61.831417,110.578804 58.484272,114.327606 55.137123,118.076401 
z"/>
<path fill="#2FBCDD" opacity="1.000000" stroke="none" 
	d="
M112.506027,58.952732 
	C113.167015,60.071449 113.484894,61.173103 113.853271,63.035889 
	C113.580231,67.502785 113.256706,71.208542 112.625313,75.051331 
	C108.518944,79.713524 108.518944,79.713524 102.270851,74.872025 
	C93.885956,81.149422 86.937904,88.187164 88.968285,100.231079 
	C88.954224,100.478592 88.922935,100.973450 88.573425,101.044312 
	C87.324577,101.430565 86.425247,101.745941 85.370712,102.060249 
	C85.019547,101.937843 84.927406,101.762085 84.965782,101.112717 
	C84.975906,100.136337 84.959343,99.579124 85.201935,98.739838 
	C85.905579,97.415443 86.838806,96.311455 86.716301,95.340691 
	C85.831993,88.333336 89.055336,83.055725 93.463623,78.162483 
	C94.206299,77.338097 94.580437,76.181702 95.386513,75.134064 
	C96.075142,74.805191 96.502106,74.520958 96.929077,74.236732 
	C102.007027,69.136383 107.084969,64.036026 112.506027,58.952732 
z"/>
<path fill="#3E76EE" opacity="1.000000" stroke="none" 
	d="
M130.539307,176.338959 
	C130.539307,176.338943 130.205429,176.214828 130.014084,175.744110 
	C128.220612,174.506821 126.618492,173.740280 125.016373,172.973724 
	C125.016373,172.973724 125.004158,172.998260 125.037926,172.655319 
	C125.073097,171.867096 125.074493,171.421814 125.352142,170.797699 
	C129.658905,166.076233 133.691360,161.534668 134.144440,154.811111 
	C134.499939,154.387863 134.734741,154.178696 135.348419,153.901337 
	C136.465073,151.820786 137.227829,149.836441 138.191925,147.836884 
	C138.393265,147.821655 138.793228,147.877335 139.000641,147.800110 
	C139.472412,147.591156 139.706955,147.418869 140.375122,147.170364 
	C145.216995,146.796387 149.595428,146.458084 153.975159,146.433105 
	C153.976303,147.164215 153.976120,147.582016 153.588806,148.079193 
	C148.375229,148.391464 144.099197,149.942017 141.640869,154.313828 
	C139.944183,157.331161 137.821655,160.727356 137.851059,163.936249 
	C137.885712,167.716354 141.914917,168.053345 145.194565,168.197876 
	C145.805710,168.224808 146.396835,168.705460 146.756317,169.208252 
	C144.435257,171.083557 142.355103,172.727325 140.274933,174.371094 
	C140.274933,174.371094 140.108597,174.097061 139.807968,174.207550 
	C136.517990,174.991669 133.528656,175.665314 130.539307,176.338959 
z"/>
<path fill="#71548E" opacity="1.000000" stroke="none" 
	d="
M49.844810,152.534698 
	C50.210815,152.281754 50.711880,152.291763 51.188267,152.405304 
	C54.322357,153.152313 57.155220,158.261230 60.587646,153.754700 
	C62.681042,151.006210 63.879635,147.442017 64.933975,144.073288 
	C66.029251,140.573761 66.466415,136.868256 67.624054,133.379425 
	C68.721840,134.289001 69.386955,135.071976 70.033798,136.269165 
	C68.996796,143.854813 68.291840,151.093689 66.773315,158.157669 
	C66.301041,160.354645 63.624905,162.077866 61.957695,164.017960 
	C57.961281,160.293823 53.964867,156.569687 49.844810,152.534698 
z"/>
<path fill="#695691" opacity="1.000000" stroke="none" 
	d="
M62.100365,164.317535 
	C63.624905,162.077866 66.301041,160.354645 66.773315,158.157669 
	C68.291840,151.093689 68.996796,143.854813 70.336792,136.371185 
	C71.432098,136.752808 72.206139,137.446594 72.946312,138.550415 
	C71.057610,149.720856 71.136475,160.414993 73.684074,170.953796 
	C71.875519,170.950882 70.393867,171.007477 68.912216,171.064056 
	C66.689156,168.915070 64.466095,166.766098 62.100365,164.317535 
z"/>
<path fill="#738476" opacity="1.000000" stroke="none" 
	d="
M65.537628,106.202141 
	C60.993881,102.103973 56.490810,97.959167 51.880505,93.937302 
	C50.571533,92.795387 48.950127,92.011620 47.106979,90.982864 
	C47.948193,89.359764 49.154427,87.817406 50.988541,86.203201 
	C58.549129,90.490608 64.462654,95.814186 67.863831,103.655746 
	C67.017952,104.665154 66.277786,105.433647 65.537628,106.202141 
z"/>
<path fill="#14498E" opacity="1.000000" stroke="none" 
	d="
M85.784157,137.024994 
	C83.966064,146.482956 87.858604,152.745117 96.757843,156.575272 
	C95.435104,158.385803 93.929703,159.928711 91.837677,161.419495 
	C85.661079,160.455856 83.487473,157.362747 84.129471,151.607178 
	C84.353859,149.595444 82.605652,147.375153 81.801979,145.233704 
	C81.135262,143.457184 80.532715,141.656586 79.937668,139.894516 
	C79.973595,139.922379 79.923477,139.998245 80.129845,139.804794 
	C80.543495,139.295792 80.750778,138.980255 81.030174,138.368683 
	C81.985519,137.284866 82.868752,136.497070 83.968964,135.931793 
	C84.718674,136.444534 85.251419,136.734772 85.784157,137.024994 
z"/>
<path fill="#405491" opacity="1.000000" stroke="none" 
	d="
M88.341820,165.370300 
	C86.625916,167.253281 84.910011,169.136276 82.557213,170.936951 
	C80.864098,169.399155 79.566933,168.060944 78.792000,166.468582 
	C74.727684,158.116989 75.350845,149.051514 75.236755,140.250412 
	C76.003075,140.834595 76.527451,141.309845 77.076981,142.190201 
	C77.510460,144.514420 77.507042,146.655884 78.401588,148.312439 
	C81.527267,154.100754 80.795540,162.174149 88.341820,165.370300 
z"/>
<path fill="#5A5692" opacity="1.000000" stroke="none" 
	d="
M74.994812,140.141464 
	C75.350845,149.051514 74.727684,158.116989 78.792000,166.468582 
	C79.566933,168.060944 80.864098,169.399155 82.263481,171.045609 
	C81.718819,172.274551 80.830994,173.312500 79.475426,174.215759 
	C77.342117,173.058487 75.676552,172.035904 74.010986,171.013321 
	C71.136475,160.414993 71.057610,149.720856 73.214676,138.659531 
	C74.009537,138.952911 74.502174,139.547180 74.994812,140.141464 
z"/>
<path fill="#3C8EEC" opacity="1.000000" stroke="none" 
	d="
M179.965668,106.826721 
	C180.132324,106.832123 180.298981,106.837524 180.715622,106.856827 
	C181.020645,120.134911 181.231628,133.402420 180.949249,146.659424 
	C180.910461,148.480927 178.420547,150.250229 176.457611,151.935349 
	C175.558319,151.538315 175.266861,151.249649 175.165421,150.679962 
	C179.212402,145.933487 179.506302,139.184662 176.115509,134.620453 
	C176.803986,132.057800 177.842239,129.883698 177.920029,127.675766 
	C178.150742,121.127060 178.002899,114.565025 178.289536,107.936676 
	C179.039230,107.519005 179.502441,107.172859 179.965668,106.826721 
z"/>
<path fill="#725081" opacity="1.000000" stroke="none" 
	d="
M64.029739,128.989441 
	C60.320602,127.825150 57.740204,128.690262 55.171944,132.039825 
	C52.294460,135.792740 48.247307,138.635300 44.833008,141.999725 
	C43.987129,142.833221 43.619846,144.152420 43.019127,145.617905 
	C41.758282,144.880219 40.510876,143.772980 39.090942,142.404190 
	C44.130066,136.867218 49.294025,131.543045 54.595200,126.359169 
	C55.607662,125.369102 57.161404,124.932564 59.060745,124.271332 
	C61.113956,125.864494 62.571846,127.426964 64.029739,128.989441 
z"/>
<path fill="#6D8C7E" opacity="1.000000" stroke="none" 
	d="
M67.969559,103.414833 
	C64.462654,95.814186 58.549129,90.490608 51.275429,86.051140 
	C52.454185,84.098160 53.973942,82.225388 55.973259,80.471512 
	C57.953682,82.879372 59.320015,85.271805 60.983978,87.435326 
	C64.243034,91.672829 67.668037,95.782692 70.893944,100.254219 
	C69.832199,101.513649 68.900879,102.464241 67.969559,103.414833 
z"/>
<path fill="#649887" opacity="1.000000" stroke="none" 
	d="
M71.024361,99.945381 
	C67.668037,95.782692 64.243034,91.672829 60.983978,87.435326 
	C59.320015,85.271805 57.953682,82.879372 56.259056,80.308510 
	C57.096809,78.755730 58.128330,77.484848 59.554955,76.054657 
	C59.950058,75.895348 60.192993,75.966782 60.136238,76.366890 
	C61.096603,79.270233 61.770485,82.000603 63.232216,84.209633 
	C64.560997,86.217751 67.119743,87.408173 68.464874,89.410172 
	C70.392380,92.278923 72.760826,93.371300 76.056999,93.264008 
	C76.068687,93.792213 76.058205,94.003654 75.972824,94.528625 
	C74.273407,96.543228 72.648880,98.244308 71.024361,99.945381 
z"/>
<path fill="#1F4D92" opacity="1.000000" stroke="none" 
	d="
M88.621582,165.221329 
	C80.795540,162.174149 81.527267,154.100754 78.401588,148.312439 
	C77.507042,146.655884 77.510460,144.514420 77.336304,142.069046 
	C78.347565,140.984085 79.124649,140.425369 79.901733,139.866653 
	C80.532715,141.656586 81.135262,143.457184 81.801979,145.233704 
	C82.605652,147.375153 84.353859,149.595444 84.129471,151.607178 
	C83.487473,157.362747 85.661079,160.455856 91.539368,161.538956 
	C90.852249,162.831146 89.876801,163.951752 88.621582,165.221329 
z"/>
<path fill="#5FB7A1" opacity="1.000000" stroke="none" 
	d="
M96.563736,74.246384 
	C96.502106,74.520958 96.075142,74.805191 95.018448,75.059265 
	C90.386269,71.643425 86.295502,68.355659 82.404732,64.846153 
	C77.994026,60.867661 74.426834,61.363686 70.821785,66.150208 
	C69.494354,67.912666 67.113991,68.882095 65.121132,70.122963 
	C65.028366,70.032677 64.842743,69.852196 64.842743,69.852196 
	C68.591599,65.547745 72.340446,61.243298 76.467873,56.504166 
	C82.049210,61.891911 87.076843,66.821381 92.208565,71.640022 
	C93.350479,72.712265 94.858788,73.394325 96.563736,74.246384 
z"/>
<path fill="#3E76EE" opacity="1.000000" stroke="none" 
	d="
M174.975403,150.960968 
	C175.266861,151.249649 175.558319,151.538315 176.097824,152.009995 
	C171.635956,155.159485 166.926025,158.125977 161.605103,161.247986 
	C160.715759,161.672043 160.437424,161.940567 160.159088,162.209091 
	C160.159088,162.209091 160.117035,162.016708 159.850601,162.109406 
	C159.020233,162.689911 158.456299,163.177734 157.892349,163.665558 
	C157.892349,163.665558 157.796341,163.827271 157.401672,163.856720 
	C156.402344,164.355835 155.797699,164.825516 155.193054,165.295197 
	C154.769257,165.585953 154.345459,165.876709 153.326431,166.216797 
	C151.880951,166.925522 151.030670,167.584900 150.180389,168.244278 
	C150.180389,168.244278 149.994232,168.015732 149.737488,168.070145 
	C149.005463,168.108688 148.530182,168.092819 148.122589,167.728485 
	C149.141739,166.568436 150.039902,165.682053 151.054459,164.959061 
	C154.348282,162.611771 157.684738,160.324341 161.333466,157.864594 
	C166.099884,155.463867 170.537643,153.212418 174.975403,150.960968 
z"/>
<path fill="#5A5885" opacity="1.000000" stroke="none" 
	d="
M73.684082,170.953796 
	C75.676552,172.035904 77.342117,173.058487 79.204094,174.427734 
	C78.513527,175.874451 77.626549,176.974487 75.168060,180.023560 
	C72.908905,176.783417 71.103996,174.194763 69.105652,171.335083 
	C70.393867,171.007477 71.875519,170.950882 73.684082,170.953796 
z"/>
<path fill="#506CB3" opacity="1.000000" stroke="none" 
	d="
M109.087570,163.748611 
	C108.900452,162.963547 108.933907,162.403748 108.983650,161.421982 
	C108.999931,161.000000 109.003349,160.997910 109.294273,161.176544 
	C111.048866,161.909607 112.512527,162.464020 114.150970,163.297012 
	C115.868217,164.734772 117.410698,165.893936 118.967926,167.360596 
	C119.023613,168.076782 119.064545,168.485474 118.979492,169.013000 
	C118.853508,169.131836 118.602234,169.370270 118.602234,169.370270 
	C115.504211,167.571472 112.406181,165.772675 109.087570,163.748611 
z"/>
<path fill="#4A68BA" opacity="1.000000" stroke="none" 
	d="
M130.774719,176.617157 
	C133.528656,175.665314 136.517990,174.991669 139.905121,174.335052 
	C137.528412,176.380325 135.129745,179.781799 130.774719,176.617157 
z"/>
<path fill="#5FB7A1" opacity="1.000000" stroke="none" 
	d="
M59.823727,75.903763 
	C61.216606,73.993576 62.735817,72.074974 64.548889,70.004280 
	C64.842743,69.852196 65.028366,70.032677 65.073494,70.466415 
	C65.080994,71.600510 65.043358,72.300873 64.749481,73.164902 
	C63.675373,74.218987 62.857510,75.109390 61.730656,75.998138 
	C61.012104,75.986580 60.602551,75.976685 60.192993,75.966782 
	C60.192993,75.966782 59.950058,75.895348 59.823727,75.903763 
z"/>
<path fill="#4A68BA" opacity="1.000000" stroke="none" 
	d="
M140.619873,174.303391 
	C142.355103,172.727325 144.435257,171.083557 146.988281,169.197784 
	C147.461136,168.955765 147.924072,168.921188 148.043762,169.059097 
	C148.163437,169.197006 148.404739,169.471146 148.404739,169.471146 
	C145.924774,171.059326 143.444794,172.647507 140.619873,174.303391 
z"/>
<path fill="#4A68BA" opacity="1.000000" stroke="none" 
	d="
M125.075890,170.976532 
	C125.074493,171.421814 125.073097,171.867096 125.048859,172.645660 
	C123.345421,172.113708 121.664818,171.248474 119.974083,170.115662 
	C120.310005,169.608978 120.656059,169.369858 121.244308,169.100327 
	C121.486496,169.069931 121.973442,169.038605 122.189758,169.227737 
	C122.940163,169.612350 123.474251,169.807831 124.158302,170.194244 
	C124.529533,170.627213 124.785408,170.824326 125.075890,170.976532 
z"/>
<path fill="#4A68BA" opacity="1.000000" stroke="none" 
	d="
M125.190582,173.250732 
	C126.618492,173.740280 128.220612,174.506821 129.890625,175.615738 
	C128.427261,175.147980 126.896027,174.337860 125.190582,173.250732 
z"/>
<path fill="#2FBCDD" opacity="1.000000" stroke="none" 
	d="
M120.428734,58.339962 
	C118.491669,58.660393 116.169121,58.849735 113.441818,58.963829 
	C115.372459,58.662010 117.707855,58.435440 120.428734,58.339962 
z"/>
<path fill="#71548E" opacity="1.000000" stroke="none" 
	d="
M47.214378,150.248199 
	C47.951267,150.521576 48.825062,151.066025 49.746616,151.945557 
	C48.980011,151.693542 48.165646,151.106415 47.214378,150.248199 
z"/>
<path fill="#4A68BA" opacity="1.000000" stroke="none" 
	d="
M150.500183,168.194397 
	C151.030670,167.584900 151.880951,166.925522 153.076385,166.290375 
	C152.554367,166.924591 151.687180,167.534546 150.500183,168.194397 
z"/>
<path fill="#4A68BA" opacity="1.000000" stroke="none" 
	d="
M158.173737,163.624023 
	C158.456299,163.177734 159.020233,162.689911 159.880157,162.205643 
	C159.602463,162.666962 159.028793,163.124725 158.173737,163.624023 
z"/>
<path fill="#4A68BA" opacity="1.000000" stroke="none" 
	d="
M155.485794,165.264221 
	C155.797699,164.825516 156.402344,164.355835 157.307968,163.864548 
	C156.998810,164.306381 156.388672,164.769821 155.485794,165.264221 
z"/>
<path fill="#4A68BA" opacity="1.000000" stroke="none" 
	d="
M148.054916,168.076965 
	C148.530182,168.092819 149.005463,168.108688 149.833008,168.181381 
	C149.772324,168.597275 149.359375,168.956345 148.675568,169.393280 
	C148.404739,169.471146 148.163437,169.197006 148.082001,168.849167 
	C148.000565,168.501328 148.054916,168.076965 148.054916,168.076965 
z"/>
<path fill="#506CB3" opacity="1.000000" stroke="none" 
	d="
M121.002106,169.130722 
	C120.656059,169.369858 120.310005,169.608978 119.759140,169.904236 
	C119.374931,169.895416 119.195534,169.830475 118.809181,169.567902 
	C118.602234,169.370270 118.853508,169.131836 119.294304,169.054657 
	C120.157433,169.028564 120.579773,169.079651 121.002106,169.130722 
z"/>
<path fill="#4A68BA" opacity="1.000000" stroke="none" 
	d="
M160.455154,162.155579 
	C160.437424,161.940567 160.715759,161.672043 161.280640,161.327728 
	C161.295212,161.535309 161.023209,161.818680 160.455154,162.155579 
z"/>
<path fill="#071325" opacity="1.000000" stroke="none" 
	d="
M153.798569,87.088928 
	C153.865570,87.251465 153.932556,87.414001 153.937958,88.188385 
	C153.940826,107.447838 154.005249,126.095467 153.982437,144.896301 
	C153.895203,145.049530 153.842422,145.398224 153.393677,145.337036 
	C146.956375,145.419144 140.967834,145.562424 134.619568,145.588867 
	C133.515396,145.544769 132.770966,145.617508 131.650818,145.570862 
	C130.496826,145.510742 129.718506,145.570023 128.650085,145.478302 
	C127.571884,144.970215 126.783813,144.613098 125.995735,144.255981 
	C122.686073,141.071045 119.235535,138.015198 116.138100,134.635742 
	C114.947952,133.337234 114.562416,131.301239 113.660217,128.824860 
	C113.360710,114.718910 113.211235,101.389404 113.187729,87.929192 
	C113.313690,87.798485 113.389198,87.444389 113.451859,87.535896 
	C113.514511,87.627403 113.544273,87.287926 113.544273,87.287926 
	C113.544273,87.287926 113.889565,87.186249 114.465927,87.146805 
	C127.961052,87.101212 140.879807,87.095070 153.798569,87.088928 
z"/>
<path fill="#0A1325" opacity="1.000000" stroke="none" 
	d="
M79.937668,139.894516 
	C79.124649,140.425369 78.347565,140.984085 77.311157,141.663940 
	C76.527451,141.309845 76.003075,140.834595 75.236755,140.250412 
	C74.502174,139.547180 74.009537,138.952911 73.248543,138.249512 
	C72.206139,137.446594 71.432098,136.752808 70.355064,135.956970 
	C69.386955,135.071976 68.721840,134.289001 67.876778,133.251892 
	C66.659195,131.754410 65.621559,130.511032 64.306831,129.128555 
	C62.571846,127.426964 61.113956,125.864494 59.388988,124.127090 
	C57.794079,122.215599 56.466244,120.479027 55.137764,118.409431 
	C58.484272,114.327606 61.831417,110.578804 65.358093,106.516075 
	C66.277786,105.433647 67.017952,104.665154 67.863831,103.655746 
	C68.900879,102.464241 69.832199,101.513649 70.893944,100.254219 
	C72.648880,98.244308 74.273407,96.543228 76.300842,94.447067 
	C78.073997,95.096367 79.444229,96.140755 80.846519,97.154007 
	C80.878571,97.122879 80.813622,97.061501 80.889252,97.344696 
	C81.290222,97.819565 81.615562,98.011238 81.939331,98.130951 
	C81.937775,98.058983 81.793922,98.064774 81.873955,98.347687 
	C82.280533,98.824936 82.607071,99.019264 82.899002,99.172211 
	C82.864395,99.130814 82.784485,99.203339 82.894234,99.508820 
	C83.649025,100.386826 84.294060,100.959358 84.939102,101.531891 
	C84.927406,101.762085 85.019547,101.937843 85.486069,102.479889 
	C85.864632,104.331978 85.972626,105.763374 85.995651,107.539650 
	C85.965240,108.600784 86.019798,109.317032 85.989563,110.493217 
	C85.967178,117.958199 86.029587,124.963234 86.092003,131.968277 
	C85.996231,132.351501 85.900459,132.734726 85.505264,133.536362 
	C84.721222,134.539597 84.236603,135.124435 83.751984,135.709274 
	C82.868752,136.497070 81.985519,137.284866 80.797516,138.542435 
	C80.302979,139.340866 80.113220,139.669556 79.923477,139.998245 
	C79.923477,139.998245 79.973595,139.922379 79.937668,139.894516 
z"/>
<path fill="#42CCF0" opacity="1.000000" stroke="none" 
	d="
M86.080627,107.194763 
	C85.972626,105.763374 85.864632,104.331978 85.641273,102.480957 
	C86.425247,101.745941 87.324577,101.430565 88.592499,101.442780 
	C89.795532,103.842484 90.129120,106.390137 91.559387,107.896545 
	C95.668419,112.224327 100.179230,116.177505 104.626869,120.172432 
	C105.839844,121.261932 107.387192,121.979172 109.298370,123.196823 
	C109.917717,119.666786 110.813271,117.067886 110.739815,114.496666 
	C110.544067,107.644264 112.821098,100.550819 109.206161,93.717728 
	C110.608078,91.644783 111.834923,89.852341 113.061760,88.059898 
	C113.211235,101.389404 113.360710,114.718910 113.495361,128.517288 
	C111.180199,128.031158 108.490044,127.548477 106.652878,126.032257 
	C101.220566,121.548920 96.125290,116.657219 90.515808,111.878448 
	C90.133446,111.831635 90.119759,111.928505 90.099579,111.595535 
	C88.746475,109.906631 87.413551,108.550697 86.080627,107.194763 
z"/>
<path fill="#506CB3" opacity="1.000000" stroke="none" 
	d="
M108.997620,161.001984 
	C103.988029,156.243607 104.336456,153.448837 110.171555,150.756821 
	C112.106956,149.863907 114.483368,149.128494 115.668228,147.568970 
	C118.352806,144.035522 121.455940,143.651840 125.624908,145.310608 
	C126.006210,146.106491 125.999496,146.545517 125.596924,146.988556 
	C119.002998,147.629059 110.819725,154.704727 109.003349,160.997910 
	C109.003349,160.997910 108.999931,161.000000 108.997620,161.001984 
z"/>
<path fill="#5470C8" opacity="1.000000" stroke="none" 
	d="
M125.992783,146.984543 
	C125.999496,146.545517 126.006210,146.106491 126.019608,145.338394 
	C126.026291,145.009323 126.028366,144.631393 126.012054,144.443695 
	C126.783813,144.613098 127.571884,144.970215 128.655930,145.709183 
	C128.982086,146.398163 129.002686,146.705933 129.004456,147.383850 
	C127.692528,149.971130 126.278732,152.132202 125.111336,154.419067 
	C122.981590,158.591095 120.997833,162.837631 118.953178,167.053101 
	C117.410698,165.893936 115.868217,164.734772 114.462204,163.134155 
	C118.360619,157.779739 122.127800,152.870728 125.867538,147.940872 
	C126.036285,147.718445 125.956696,147.307617 125.992783,146.984543 
z"/>
<path fill="#6777A9" opacity="1.000000" stroke="none" 
	d="
M86.424477,131.893021 
	C86.029587,124.963234 85.967178,117.958199 86.276001,110.630188 
	C87.804749,110.847656 88.962250,111.388077 90.119759,111.928505 
	C90.119759,111.928505 90.133446,111.831635 90.180588,111.818832 
	C90.022530,116.986557 90.021004,122.188110 89.489693,127.334969 
	C89.327461,128.906525 87.708679,130.327713 86.424477,131.893021 
z"/>
<path fill="#1F4D92" opacity="1.000000" stroke="none" 
	d="
M83.968964,135.931793 
	C84.236603,135.124435 84.721222,134.539597 85.469360,133.830994 
	C85.779457,134.537460 85.826035,135.367706 85.828384,136.611465 
	C85.251419,136.734772 84.718674,136.444534 83.968964,135.931793 
z"/>
<path fill="#26E1FE" opacity="1.000000" stroke="none" 
	d="
M112.933174,74.914307 
	C113.256706,71.208542 113.580231,67.502785 113.921768,63.372993 
	C117.969704,62.617874 121.994911,62.203915 126.030609,61.974262 
	C132.815735,61.588158 139.608459,61.337250 146.396210,60.994164 
	C150.454193,60.789059 153.277451,61.922989 153.227997,66.688782 
	C153.166824,72.581261 153.213364,78.474854 153.213364,85.387405 
	C139.831390,84.244446 126.854492,83.136086 113.448090,81.584717 
	C112.990112,79.065903 112.961647,76.990105 112.933174,74.914307 
z"/>
<path fill="#26CFF8" opacity="1.000000" stroke="none" 
	d="
M112.625313,75.051331 
	C112.961647,76.990105 112.990112,79.065903 113.026779,81.585602 
	C113.054527,83.379211 113.074074,84.728905 113.144119,86.638779 
	C113.194603,87.198959 113.389198,87.444389 113.389198,87.444389 
	C113.389198,87.444389 113.313690,87.798485 113.187729,87.929192 
	C111.834923,89.852341 110.608078,91.644783 108.799309,93.635757 
	C102.128174,92.207024 96.486458,92.179016 92.173454,97.860924 
	C91.443863,98.822083 90.062546,99.288536 88.982346,99.983551 
	C86.937904,88.187164 93.885956,81.149422 102.270851,74.872025 
	C108.518944,79.713524 108.518944,79.713524 112.625313,75.051331 
z"/>
<path fill="#2A99EA" opacity="1.000000" stroke="none" 
	d="
M155.307007,87.890137 
	C162.465363,93.351501 169.623703,98.812866 176.925858,104.600922 
	C177.069656,104.927612 176.965973,105.036926 176.559387,105.029266 
	C173.337631,103.949806 169.977890,103.509026 167.834183,101.659103 
	C164.574554,98.846176 161.225266,97.136818 156.996033,96.624359 
	C156.351944,94.832642 155.708801,93.420830 155.046661,91.596069 
	C155.120773,90.085457 155.213882,88.987801 155.307007,87.890137 
z"/>
<path fill="#506CB3" opacity="1.000000" stroke="none" 
	d="
M155.015808,87.883865 
	C155.213882,88.987801 155.120773,90.085457 154.899948,91.931503 
	C154.855240,110.118668 154.938248,127.557457 154.776855,144.957489 
	C154.532425,144.918716 154.069687,144.743088 154.069672,144.743088 
	C154.005249,126.095467 153.940826,107.447838 154.026215,88.436882 
	C154.358887,88.008232 154.541748,87.942909 155.015808,87.883865 
z"/>
<path fill="#51C5DF" opacity="1.000000" stroke="none" 
	d="
M153.495819,86.833313 
	C140.879807,87.095070 127.961052,87.101212 114.598686,87.025284 
	C115.412048,86.623848 116.672005,86.016853 117.925514,86.029877 
	C129.681992,86.151970 141.437378,86.380173 153.495819,86.833313 
z"/>
<path fill="#2A99EA" opacity="1.000000" stroke="none" 
	d="
M179.792191,106.594116 
	C179.502441,107.172859 179.039230,107.519005 178.156219,107.649063 
	C177.479614,106.634300 177.222794,105.835609 176.965973,105.036926 
	C176.965973,105.036926 177.069656,104.927612 177.122559,104.871391 
	C177.989883,105.330620 178.804306,105.846069 179.792191,106.594116 
z"/>
<path fill="#5C72AF" opacity="1.000000" stroke="none" 
	d="
M113.451859,87.535896 
	C113.389198,87.444389 113.194603,87.198959 113.171501,87.043533 
	C113.148399,86.888107 113.398964,87.037193 113.471619,87.162560 
	C113.544273,87.287926 113.514511,87.627403 113.451859,87.535896 
z"/>
<path fill="#46CEA8" opacity="1.000000" stroke="none" 
	d="
M65.005722,73.001228 
	C65.043358,72.300873 65.080994,71.600510 65.166260,70.556702 
	C67.113991,68.882095 69.494354,67.912666 70.821785,66.150208 
	C74.426834,61.363686 77.994026,60.867661 82.404732,64.846153 
	C86.295502,68.355659 90.386269,71.643425 94.756790,75.103912 
	C94.580437,76.181702 94.206299,77.338097 93.463623,78.162483 
	C89.055336,83.055725 85.831993,88.333336 86.716301,95.340691 
	C86.838806,96.311455 85.905579,97.415443 84.841591,98.752975 
	C83.742882,99.099907 83.263687,99.151627 82.784485,99.203339 
	C82.784485,99.203339 82.864395,99.130814 82.747383,98.944641 
	C82.351555,98.527229 82.072739,98.295998 81.793922,98.064774 
	C81.793922,98.064774 81.937775,98.058983 81.788391,97.905884 
	C81.363884,97.522362 81.088753,97.291931 80.813622,97.061501 
	C80.813622,97.061501 80.878571,97.122879 80.889175,96.762039 
	C80.759666,95.437790 80.939178,94.239128 80.430008,93.547379 
	C75.353607,86.650795 70.163635,79.837814 65.005722,73.001228 
z"/>
<path fill="#28D7FC" opacity="1.000000" stroke="none" 
	d="
M88.968277,100.231071 
	C90.062546,99.288536 91.443863,98.822083 92.173454,97.860924 
	C96.486458,92.179016 102.128174,92.207024 108.624237,93.916267 
	C112.821098,100.550819 110.544067,107.644264 110.739815,114.496666 
	C110.813271,117.067886 109.917717,119.666786 109.298370,123.196823 
	C107.387192,121.979172 105.839844,121.261932 104.626869,120.172432 
	C100.179230,116.177505 95.668419,112.224327 91.559387,107.896545 
	C90.129120,106.390137 89.795532,103.842484 88.942017,101.371910 
	C88.922935,100.973450 88.954224,100.478592 88.968277,100.231071 
z"/>
<path fill="#53C4A1" opacity="1.000000" stroke="none" 
	d="
M82.894234,99.508820 
	C83.263687,99.151627 83.742882,99.099907 84.582428,99.035049 
	C84.959343,99.579124 84.975906,100.136337 84.965782,101.112717 
	C84.294060,100.959358 83.649025,100.386826 82.894234,99.508820 
z"/>
<path fill="#3586FA" opacity="1.000000" stroke="none" 
	d="
M153.982452,144.896301 
	C154.069687,144.743088 154.532425,144.918716 155.039001,144.784027 
	C156.358398,143.436295 157.171204,142.223236 158.348480,140.919525 
	C164.484055,138.883743 170.255188,136.938629 176.026321,134.993515 
	C179.506302,139.184662 179.212402,145.933487 175.165421,150.679962 
	C170.537643,153.212418 166.099884,155.463867 161.012390,157.752289 
	C158.233749,154.526093 156.104843,151.262955 153.975937,147.999802 
	C153.976120,147.582016 153.976303,147.164215 153.981110,146.245178 
	C153.985748,145.743942 153.842422,145.398224 153.842422,145.398224 
	C153.842422,145.398224 153.895203,145.049530 153.982452,144.896301 
z"/>
<path fill="#357BFB" opacity="1.000000" stroke="none" 
	d="
M153.588806,148.079193 
	C156.104843,151.262955 158.233749,154.526093 160.683716,157.901550 
	C157.684738,160.324341 154.348282,162.611771 151.054459,164.959061 
	C150.039902,165.682053 149.141739,166.568436 148.122589,167.728485 
	C148.054916,168.076965 148.000565,168.501328 147.962311,168.711258 
	C147.924072,168.921188 147.461136,168.955765 147.229172,168.966248 
	C146.396835,168.705460 145.805710,168.224808 145.194565,168.197876 
	C141.914917,168.053345 137.885712,167.716354 137.851059,163.936249 
	C137.821655,160.727356 139.944183,157.331161 141.640869,154.313828 
	C144.099197,149.942017 148.375229,148.391464 153.588806,148.079193 
z"/>
<path fill="#4873E4" opacity="1.000000" stroke="none" 
	d="
M124.008339,170.003311 
	C123.474251,169.807831 122.940163,169.612350 122.340729,168.898315 
	C126.513130,161.917038 130.750870,155.454315 134.991516,149.408813 
	C134.994446,151.216537 134.994476,152.607056 134.994507,153.997559 
	C134.734741,154.178696 134.499939,154.387863 133.867523,155.002518 
	C130.299393,160.254425 127.153862,165.128860 124.008339,170.003311 
z"/>
<path fill="#4374ED" opacity="1.000000" stroke="none" 
	d="
M124.158302,170.194244 
	C127.153862,165.128860 130.299393,160.254425 133.721848,155.188568 
	C133.691360,161.534668 129.658905,166.076233 125.352142,170.797699 
	C124.785408,170.824326 124.529533,170.627213 124.158302,170.194244 
z"/>
<path fill="#506CB3" opacity="1.000000" stroke="none" 
	d="
M153.393677,145.337036 
	C153.842422,145.398224 153.985748,145.743942 153.979797,145.931854 
	C149.595428,146.458084 145.216995,146.796387 140.169952,147.244171 
	C139.229813,147.480194 138.993774,147.654755 138.793228,147.877335 
	C138.793228,147.877335 138.393265,147.821655 137.824036,147.826584 
	C136.518402,147.802750 135.782013,147.774002 135.031128,147.554932 
	C135.016617,147.364624 134.959030,146.987274 134.953873,146.773254 
	C134.931259,146.273727 134.941452,145.989227 134.979294,145.705719 
	C140.967834,145.562424 146.956375,145.419144 153.393677,145.337036 
z"/>
<path fill="#4374ED" opacity="1.000000" stroke="none" 
	d="
M135.045624,147.745239 
	C135.782013,147.774002 136.518402,147.802750 137.622681,147.841812 
	C137.227829,149.836441 136.465073,151.820786 135.348419,153.901337 
	C134.994476,152.607056 134.994446,151.216537 135.004684,149.097214 
	C135.025162,148.160690 135.035385,147.952972 135.045624,147.745239 
z"/>
<path fill="#4873E4" opacity="1.000000" stroke="none" 
	d="
M139.000641,147.800110 
	C138.993774,147.654755 139.229813,147.480194 139.706512,147.279846 
	C139.706955,147.418869 139.472412,147.591156 139.000641,147.800110 
z"/>
<path fill="#1F4D92" opacity="1.000000" stroke="none" 
	d="
M80.129837,139.804794 
	C80.113220,139.669556 80.302979,139.340866 80.725395,138.838440 
	C80.750778,138.980255 80.543495,139.295792 80.129837,139.804794 
z"/>
<path fill="#2C94FB" opacity="1.000000" stroke="none" 
	d="
M176.115509,134.620453 
	C170.255188,136.938629 164.484055,138.883743 158.192230,140.532639 
	C157.444626,138.272781 157.030441,136.310028 157.021286,134.345383 
	C156.963287,121.898575 156.994904,109.451355 156.996948,97.004272 
	C161.225266,97.136818 164.574554,98.846176 167.834183,101.659103 
	C169.977890,103.509026 173.337631,103.949806 176.559387,105.029266 
	C177.222794,105.835609 177.479614,106.634300 177.869751,107.720596 
	C178.002899,114.565025 178.150742,121.127060 177.920029,127.675766 
	C177.842239,129.883698 176.803986,132.057800 176.115509,134.620453 
z"/>
<path fill="#53C4A1" opacity="1.000000" stroke="none" 
	d="
M64.749481,73.164902 
	C70.163635,79.837814 75.353607,86.650795 80.430008,93.547379 
	C80.939178,94.239128 80.759666,95.437790 80.857117,96.793167 
	C79.444229,96.140755 78.073997,95.096367 76.375740,94.133530 
	C76.058205,94.003654 76.068687,93.792213 75.971626,92.936844 
	C72.659592,88.779411 69.393723,85.319229 66.276550,81.729912 
	C64.723740,79.941895 63.443298,77.917343 62.039650,75.999794 
	C62.857510,75.109390 63.675373,74.218987 64.749481,73.164902 
z"/>
<path fill="#5BAF94" opacity="1.000000" stroke="none" 
	d="
M61.730656,75.998138 
	C63.443298,77.917343 64.723740,79.941895 66.276550,81.729912 
	C69.393723,85.319229 72.659592,88.779411 75.949463,92.620071 
	C72.760826,93.371300 70.392380,92.278923 68.464874,89.410172 
	C67.119743,87.408173 64.560997,86.217751 63.232216,84.209633 
	C61.770485,82.000603 61.096603,79.270233 60.136238,76.366890 
	C60.602551,75.976685 61.012104,75.986580 61.730656,75.998138 
z"/>
<path fill="#596EBF" opacity="1.000000" stroke="none" 
	d="
M125.596924,146.988556 
	C125.956696,147.307617 126.036285,147.718445 125.867538,147.940872 
	C122.127800,152.870728 118.360619,157.779739 114.287430,162.855591 
	C112.512527,162.464020 111.048866,161.909607 109.294273,161.176544 
	C110.819725,154.704727 119.002998,147.629059 125.596924,146.988556 
z"/>
<path fill="#4E71D7" opacity="1.000000" stroke="none" 
	d="
M135.031128,147.554932 
	C135.035385,147.952972 135.025162,148.160690 135.001770,148.679993 
	C130.750870,155.454315 126.513130,161.917038 122.124413,168.709183 
	C121.973442,169.038605 121.486496,169.069931 121.244301,169.100327 
	C120.579773,169.079651 120.157433,169.028564 119.420288,168.935822 
	C119.064545,168.485474 119.023613,168.076782 118.967926,167.360596 
	C120.997833,162.837631 122.981590,158.591095 125.111336,154.419067 
	C126.278732,152.132202 127.692528,149.971130 129.371094,147.373993 
	C130.481171,146.981247 131.215393,146.967850 132.326660,146.967758 
	C133.455490,146.983124 134.207260,146.985199 134.959030,146.987274 
	C134.959030,146.987274 135.016617,147.364624 135.031128,147.554932 
z"/>
<path fill="#506CB3" opacity="1.000000" stroke="none" 
	d="
M131.949600,146.954468 
	C131.215393,146.967850 130.481171,146.981247 129.380325,147.004501 
	C129.002686,146.705933 128.982086,146.398163 128.946045,145.860168 
	C129.718506,145.570023 130.496826,145.510742 131.649521,145.782288 
	C131.997467,146.393417 131.972702,146.673859 131.949600,146.954468 
z"/>
<path fill="#5470C8" opacity="1.000000" stroke="none" 
	d="
M132.326660,146.967758 
	C131.972702,146.673859 131.997467,146.393417 132.025208,145.901688 
	C132.770966,145.617508 133.515396,145.544769 134.619568,145.588867 
	C134.941452,145.989227 134.931259,146.273727 134.953873,146.773254 
	C134.207260,146.985199 133.455490,146.983124 132.326660,146.967758 
z"/>
<path fill="#5C72AF" opacity="1.000000" stroke="none" 
	d="
M90.099579,111.595535 
	C88.962250,111.388077 87.804749,110.847656 86.360802,110.170258 
	C86.019798,109.317032 85.965240,108.600784 85.995651,107.539650 
	C87.413551,108.550697 88.746475,109.906631 90.099579,111.595535 
z"/>
<path fill="#53C4A1" opacity="1.000000" stroke="none" 
	d="
M81.873955,98.347687 
	C82.072739,98.295998 82.351555,98.527229 82.781998,98.986031 
	C82.607071,99.019264 82.280533,98.824936 81.873955,98.347687 
z"/>
<path fill="#53C4A1" opacity="1.000000" stroke="none" 
	d="
M80.889252,97.344696 
	C81.088753,97.291931 81.363884,97.522362 81.789955,97.977859 
	C81.615562,98.011238 81.290222,97.819565 80.889252,97.344696 
z"/>
<path fill="#3C8EEC" opacity="1.000000" stroke="none" 
	d="
M156.996033,96.624359 
	C156.994904,109.451355 156.963287,121.898575 157.021286,134.345383 
	C157.030441,136.310028 157.444626,138.272781 157.827774,140.623291 
	C157.171204,142.223236 156.358398,143.436295 155.283417,144.822800 
	C154.938248,127.557457 154.855240,110.118668 154.918945,92.344452 
	C155.708801,93.420830 156.351944,94.832642 156.996033,96.624359 
z"/>
</svg>